# xmcd
#
# Track frame offsets:
# 150
# 17555
# 34157
# 49985
# 66283
# 83106
# 101142
# 124272
# 139604
# 153741
# 166699
# 182413
# 195135
# 206341
# 219708
# 231841
# 244062
# 259059
# 271975
# 289644
# 303148
# 317328
#
# Disc length: 4298 seconds
#
#
# Revision: 0
# Processed by: cddbd v1.5.2PL0 Copyright (c) Steve Scherf et al.
# Submitted via: FreeRIP 2.40 
#
DISCID=2c10c816
DTITLE=Toni Gomide - Coletânia de Ouro
DYEAR=2007
DGENRE=Sertanejo
TTITLE0=02 - TONI GOMIDE - A FORÇA
TTITLE1=04 - PATRÃO E FUNCIONÁRIO - ESSE ERA MEU PAI
TTITLE2=06 - AS GALVÃO - FESTA DA CATIRA
TTITLE3=08 - LIU E LEU - VELHO POUSO DE BOIADA
TTITLE4=10 - TRIO ALTO ASTRAL - SAUDADE PICA PAU
TTITLE5=12 - OS DOIS MINEIROS - A SAUDADE E O CARREIRO
TTITLE6=14 - MOCOCA E PARAISO - SAUDADONA
TTITLE7=16 - BRIGADEIRO E TOBIAS - TREM DE FERRO
TTITLE8=18 - TENÓRIO E PRAENSE - APAGÃO AÉREO
TTITLE9=20 - JOÃO MINEIRO E MARCIANO - CANTOR DAS MADRUGADAS
TTITLE10=22 - MILTINHO RODRIGUES - PARANÁ,MEU QUERIDO PARANÁ
TTITLE11=24 - DUDU DA VIOLA E ROGÉRIO - CORAÇÃO DE MADEIRA
TTITLE12=26 - BARREIRO E BARREIRINHO - CHAPÉU DE PALHA
TTITLE13=28 - TIÃO BRASIL E PARENTINHO - RAINHA DO RODEIO
TTITLE14=30 - BRIGADEIRO E TOBIAS - MEU PENSAMENTO
TTITLE15=32 - BRASÃO E BRASÃOZINHO - O VERDE DA NOSSA BANDEIRA
TTITLE16=34 - MARCO ANTONIO E JÚLIO CÉSAR - RÉPLICA DE UM CAIPIRA
TTITLE17=36 - BARREIRO E BARREIRINHO - O CALENDÁRIO
TTITLE18=38 - MARCO ANTONIO E JÚLIO CÉSAR - FIM DE SEMANA
TTITLE19=40 - BRASÃO E BRASÃOZINHO - CRIMINOSA
TTITLE20=42 - FUNCIONÁRIO E LUIS MORENO - SINGELA HOMENAGEM
TTITLE21=44 - TONI GOMIDE - AMIGOS
EXTD=
EXTT0=
EXTT1=
EXTT2=
EXTT3=
EXTT4=
EXTT5=
EXTT6=
EXTT7=
EXTT8=
EXTT9=
EXTT10=
EXTT11=
EXTT12=
EXTT13=
EXTT14=
EXTT15=
EXTT16=
EXTT17=
EXTT18=
EXTT19=
EXTT20=
EXTT21=
PLAYORDER=
